<svg xmlns="http://www.w3.org/2000/svg" height="36.59555" width="250" style="">
<rect id="backgroundrect" width="100%" height="100%" x="0" y="0" fill="none" stroke="none"/>
<g class="currentLayer" style="">
<title>Layer 1</title>
<path d="m213.9575,0.8261700000000001 l-29.88,34.596000000000004 h14.64 l29.82,-34.568 l-14.58,-0.027830000000000004 zm20.63,0 l-29.88,34.596000000000004 h14.64 l29.82,-34.568 l-14.58,-0.027830000000000004 z" fill="#d50000" stroke-width="0" id="svg_3" class=""/><path d="m63.0285,9.1426 c-4.243,-0.012700000000000003 -19.133,0.36240000000000006 -19.133,7.1714 c0,4.791 6.966,6.171 12.717,6.791 c4.071,0.43900000000000006 7.522,0.41800000000000004 7.522,0.41800000000000004 s3.235,0.129 7.154,-0.09300000000000003 c6.08,-0.3460000000000001 13.82,-1.7160000000000002 13.82,-7.118 c0,-7.1323 -20.21,-7.1577 -20.988,-7.1577 c-0.09700000000000003,0 -0.48600000000000004,-0.009900000000000003 -1.092,-0.011700000000000004 zm-39.972,0.19920000000000004 l-19.743,0.007800000000000002 c0.00040000000000000013,0 -0.925,-0.07920000000000002 -1.4762,0.3516 c-0.5147,0.40180000000000005 -0.5195,1.3088000000000002 -0.5195,1.3088000000000002 l-0.14650000000000002,10.722 c0,1.661 1.8848000000000003,1.53 1.8848000000000003,1.53 l20.689,-0.016000000000000004 s6.8,0.16900000000000004 11.438,-1.4020000000000001 c3.04,-1.029 4.603,-3.002 4.603,-5.508 c0,-2.8040000000000003 -2.701,-4.74 -6.361,-5.756 c-4.598,-1.2751000000000001 -10.369,-1.2382 -10.369,-1.2382 zm88.021,0 l-19.736,0.007800000000000002 s-0.926,-0.07920000000000002 -1.477,0.3516 c-0.515,0.40180000000000005 -0.519,1.3088000000000002 -0.519,1.3088000000000002 l-0.14900000000000002,10.722 c0,1.661 1.8850000000000002,1.53 1.8850000000000002,1.53 l20.696,-0.016000000000000004 s6.79,0.16900000000000004 11.43,-1.4020000000000001 c3.04,-1.029 4.61,-3.002 4.61,-5.508 c0,-2.8040000000000003 -2.7,-4.74 -6.37,-5.756 c-4.59,-1.2751000000000001 -10.37,-1.2382 -10.37,-1.2382 zm59.07,0.015600000000000003 c-0.18000000000000002,0 -22.9,0.017600000000000005 -22.9,0.017600000000000005 s-1.7000000000000002,-0.009600000000000003 -3.96,0.19340000000000004 c-4.53,0.40580000000000005 -11.33,1.7876 -11.33,6.7456000000000005 c0,2.307 1.25,3.941 3.41,4.973 c4.7,2.126 12.88,1.967 12.88,1.967 h20.44 c1.79,0 1.97,-1.058 1.97,-1.772 c0,-0.7130000000000001 0.05000000000000001,-3.541 0.05000000000000001,-5.168 c0,-1.6260000000000001 -1.7600000000000002,-1.488 -1.7600000000000002,-1.488 h-18.19 c-0.8,0 -0.8,0.6510000000000001 -0.8,0.6510000000000001 s-0.04000000000000001,0.8380000000000001 -0.04000000000000001,1.582 c0,0.7460000000000001 0.7600000000000001,0.7260000000000001 0.7600000000000001,0.7260000000000001 h10.49 c0.6900000000000002,0 0.77,0.557 0.77,0.557 v1.26 c0,0.6480000000000001 -0.6900000000000002,0.6910000000000002 -0.6900000000000002,0.6910000000000002 h-12.04 c-1.86,0 -8.38,0 -8.38,-3.979 c0,-3.9779999999999998 7.7,-4.015 7.7,-4.015 h21.51 c0.8700000000000001,0 0.7500000000000001,-1.047 0.7500000000000001,-1.047 v-1.3106 c0,-0.5695 -0.46,-0.5840000000000001 -0.6400000000000001,-0.5840000000000001 zm7.06,0.009800000000000003 c-1.61,0 -2.13,0.2627 -2.18,1.7498 c-0.04000000000000001,1.176 -0.17,8.523 -0.17,10.223 c0,1.6980000000000002 0.9400000000000001,1.9140000000000001 2.06,1.9140000000000001 h32.96 c0.7400000000000001,0 0.7100000000000001,-0.5740000000000001 0.7100000000000001,-0.7050000000000001 v-1.637 c0,-0.6230000000000001 -0.91,-0.6190000000000001 -0.91,-0.6190000000000001 h-24.93 c-0.97,0 -0.9400000000000001,-0.6020000000000001 -0.9400000000000001,-0.6020000000000001 s0.010000000000000002,-0.5700000000000001 0.010000000000000002,-1.207 c0,-0.6350000000000001 0.5800000000000001,-0.7380000000000001 0.8600000000000001,-0.7380000000000001 h23.46 c0.6900000000000002,0 0.6800000000000002,-0.6480000000000001 0.6800000000000002,-0.6480000000000001 v-1.621 c0,-0.7010000000000001 -0.8500000000000001,-0.6740000000000002 -0.8500000000000001,-0.6740000000000002 h-23.37 c-0.78,0 -0.79,-0.791 -0.79,-0.791 l0.020000000000000004,-0.8830000000000001 c0,-0.7660000000000001 0.77,-0.8300000000000001 0.77,-0.8300000000000001 h24.72 c0.7300000000000001,0 0.8300000000000001,-0.527 0.8300000000000001,-1.047 v-1.3106 c0,-0.6310000000000001 -0.8700000000000001,-0.5742 -0.8700000000000001,-0.5742 h-32.07 zm-113.02,2.7288 c2.066,0 12.055,0.18000000000000002 12.055,4.267 c0.011000000000000003,4.391 -9.321,4.1370000000000005 -12.055,4.1370000000000005 c-2.7350000000000003,0 -11.355,-0.16800000000000004 -11.355,-4.1370000000000005 c0,-4.392 9.288,-4.267 11.355,-4.267 zm-40.947,0.203 s2.776,0.10700000000000001 4.898,0.912 c1.6630000000000003,0.6310000000000001 2.786,1.7690000000000001 2.786,3.109 c0,1.1280000000000001 -0.7310000000000001,2.265 -2.053,2.871 c-2.261,1.035 -5.641,1.098 -5.641,1.098 l-12.738,0.008000000000000002 s-0.7188000000000001,0.018000000000000002 -0.7188000000000001,-0.6490000000000001 c0,0 0.11330000000000001,-6.597 0.11330000000000001,-6.683 c0,-0.08700000000000002 -0.008300000000000002,-0.6580000000000001 0.7515000000000001,-0.6580000000000001 c0.8740000000000001,0 12.602,-0.008000000000000002 12.602,-0.008000000000000002 zm88.022,0 s2.7800000000000002,0.10700000000000001 4.9,0.912 c1.6700000000000002,0.6310000000000001 2.79,1.7690000000000001 2.79,3.109 c0,1.1280000000000001 -0.7300000000000001,2.265 -2.06,2.871 c-2.26,1.035 -5.640000000000001,1.098 -5.640000000000001,1.098 l-12.735,0.008000000000000002 s-0.7160000000000001,0.018000000000000002 -0.7160000000000001,-0.6490000000000001 c0,0 0.11100000000000002,-6.597 0.11100000000000002,-6.683 c0,-0.08700000000000002 -0.008000000000000002,-0.6580000000000001 0.7520000000000001,-0.6580000000000001 c0.8730000000000001,0 12.598,-0.008000000000000002 12.598,-0.008000000000000002 z" stroke-width="0" id="svg_4" class="" fill="#ffffff" fill-opacity="1"/></g></svg>